<svg class="grayscale-0 invert-0 contrast-100 saturate-100" width="48" height="48" viewBox="0 0 48 48" fill="none" xmlns="http://www.w3.org/2000/svg">
<path d="M42 20C42 34 24 46 24 46C24 46 6 34 6 20C6 15.2261 7.89642 10.6477 11.2721 7.27208C14.6477 3.89642 19.2261 2 24 2C28.7739 2 33.3523 3.89642 36.7279 7.27208C40.1036 10.6477 42 15.2261 42 20Z" fill="url(#paint0_linear_44_21780)"/>
<path d="M24 26C27.3137 26 30 23.3137 30 20C30 16.6863 27.3137 14 24 14C20.6863 14 18 16.6863 18 20C18 23.3137 20.6863 26 24 26Z" fill="url(#paint1_linear_44_21780)"/>
<path d="M42 20C42 34 24 46 24 46C24 46 6 34 6 20C6 15.2261 7.89642 10.6477 11.2721 7.27208C14.6477 3.89642 19.2261 2 24 2C28.7739 2 33.3523 3.89642 36.7279 7.27208C40.1036 10.6477 42 15.2261 42 20Z" stroke="url(#paint2_linear_44_21780)" stroke-width="4" stroke-linecap="round" stroke-linejoin="round"/>
<path d="M24 26C27.3137 26 30 23.3137 30 20C30 16.6863 27.3137 14 24 14C20.6863 14 18 16.6863 18 20C18 23.3137 20.6863 26 24 26Z" stroke="url(#paint3_linear_44_21780)" stroke-width="4" stroke-linecap="round" stroke-linejoin="round"/>
<defs>
<linearGradient id="paint0_linear_44_21780" x1="6" y1="6.13861" x2="47.3703" y2="32.3504" gradientUnits="userSpaceOnUse">
<stop offset="0.015" stop-color="#D33B3E"/>
<stop offset="1" stop-color="#FFD700"/>
</linearGradient>
<linearGradient id="paint1_linear_44_21780" x1="6" y1="6.13861" x2="47.3703" y2="32.3504" gradientUnits="userSpaceOnUse">
<stop offset="0.015" stop-color="#D33B3E"/>
<stop offset="1" stop-color="#FFD700"/>
</linearGradient>
<linearGradient id="paint2_linear_44_21780" x1="6" y1="6.13861" x2="47.3703" y2="32.3504" gradientUnits="userSpaceOnUse">
<stop offset="0.015" stop-color="#D33B3E"/>
<stop offset="1" stop-color="#FFD700"/>
</linearGradient>
<linearGradient id="paint3_linear_44_21780" x1="6" y1="6.13861" x2="47.3703" y2="32.3504" gradientUnits="userSpaceOnUse">
<stop offset="0.015" stop-color="#D33B3E"/>
<stop offset="1" stop-color="#FFD700"/>
</linearGradient>
</defs>
</svg>
